# xmcd
#
# Track frame offsets:
#	150
#	17511
#	36823
#	54423
#	76978
#	94374
#	112852
#	126763
#	144232
#	160145
#
# Disc length: 2404 seconds
#
# Revision: 0
# Processed by: cddbd v1.5.2PL0 Copyright (c) Steve Scherf et al.
# Submitted via: dBpowerAMP V4.0
#
DISCID=7209620a
DTITLE=Kevin Skinner - Long Ride
DYEAR=2010
DGENRE=Country
TTITLE0=Long Ride
TTITLE1=Solid Ground
TTITLE2=Without You
TTITLE3=Her Stone
TTITLE4=Like It's The Last Goodbye
TTITLE5=Road of a Hard Outlaw
TTITLE6=Off To Heaven
TTITLE7=Soldier's Last Breath
TTITLE8=Redneck Country Town
TTITLE9=Find Your Way Back Home
EXTD=
EXTT0=
EXTT1=
EXTT2=
EXTT3=
EXTT4=
EXTT5=
EXTT6=
EXTT7=
EXTT8=
EXTT9=
PLAYORDER=
